<mxfile host="app.diagrams.net" agent="Mozilla/5.0 (Windows NT 10.0; Win64; x64) AppleWebKit/537.36 (KHTML, like Gecko) Chrome/134.0.0.0 Safari/537.36 Edg/134.0.0.0" version="26.1.1">
  <diagram name="Page-1" id="TAQnq3kzfneEbVBHUY5p">
    <mxGraphModel dx="464" dy="823" grid="1" gridSize="10" guides="1" tooltips="1" connect="1" arrows="1" fold="1" page="1" pageScale="1" pageWidth="850" pageHeight="1100" math="0" shadow="0">
      <root>
        <mxCell id="0" />
        <mxCell id="1" parent="0" />
        <mxCell id="iQeLM1-3DoPmlmmyjXH5-2" value="frame" style="shape=umlFrame;whiteSpace=wrap;html=1;pointerEvents=0;" parent="1" vertex="1">
          <mxGeometry x="5" y="110" width="925" height="580" as="geometry" />
        </mxCell>
        <mxCell id="iQeLM1-3DoPmlmmyjXH5-3" value="User" style="shape=umlActor;verticalLabelPosition=bottom;verticalAlign=top;html=1;" parent="1" vertex="1">
          <mxGeometry x="40" y="180" width="30" height="60" as="geometry" />
        </mxCell>
        <mxCell id="iOsQXkImb65fX7CqrOVJ-7" style="edgeStyle=none;curved=0;rounded=0;orthogonalLoop=1;jettySize=auto;html=1;exitX=1;exitY=0;exitDx=0;exitDy=5;exitPerimeter=0;fontSize=12;startSize=8;endSize=8;" edge="1" parent="1" source="iQeLM1-3DoPmlmmyjXH5-4" target="iOsQXkImb65fX7CqrOVJ-1">
          <mxGeometry relative="1" as="geometry" />
        </mxCell>
        <mxCell id="iOsQXkImb65fX7CqrOVJ-8" value="1. Membuka Register Page" style="edgeLabel;html=1;align=center;verticalAlign=middle;resizable=0;points=[];fontSize=12;" vertex="1" connectable="0" parent="iOsQXkImb65fX7CqrOVJ-7">
          <mxGeometry x="0.0182" y="-2" relative="1" as="geometry">
            <mxPoint y="-17" as="offset" />
          </mxGeometry>
        </mxCell>
        <mxCell id="iQeLM1-3DoPmlmmyjXH5-4" value="" style="html=1;points=[[0,0,0,0,5],[0,1,0,0,-5],[1,0,0,0,5],[1,1,0,0,-5]];perimeter=orthogonalPerimeter;outlineConnect=0;targetShapes=umlLifeline;portConstraint=eastwest;newEdgeStyle={&quot;curved&quot;:0,&quot;rounded&quot;:0};" parent="1" vertex="1">
          <mxGeometry x="50" y="320" width="10" height="340" as="geometry" />
        </mxCell>
        <mxCell id="iQeLM1-3DoPmlmmyjXH5-5" value="" style="endArrow=none;dashed=1;html=1;rounded=0;" parent="1" source="iQeLM1-3DoPmlmmyjXH5-4" edge="1">
          <mxGeometry width="50" height="50" relative="1" as="geometry">
            <mxPoint x="50" y="350" as="sourcePoint" />
            <mxPoint x="55" y="270" as="targetPoint" />
          </mxGeometry>
        </mxCell>
        <mxCell id="iQeLM1-3DoPmlmmyjXH5-12" value="" style="shape=umlLifeline;perimeter=lifelinePerimeter;whiteSpace=wrap;html=1;container=1;dropTarget=0;collapsible=0;recursiveResize=0;outlineConnect=0;portConstraint=eastwest;newEdgeStyle={&quot;curved&quot;:0,&quot;rounded&quot;:0};participant=umlBoundary;" parent="1" vertex="1">
          <mxGeometry x="230" y="190" width="50" height="420" as="geometry" />
        </mxCell>
        <mxCell id="iOsQXkImb65fX7CqrOVJ-1" value="" style="html=1;points=[[0,0,0,0,5],[0,1,0,0,-5],[1,0,0,0,5],[1,1,0,0,-5]];perimeter=orthogonalPerimeter;outlineConnect=0;targetShapes=umlLifeline;portConstraint=eastwest;newEdgeStyle={&quot;curved&quot;:0,&quot;rounded&quot;:0};" vertex="1" parent="iQeLM1-3DoPmlmmyjXH5-12">
          <mxGeometry x="20" y="130" width="10" height="340" as="geometry" />
        </mxCell>
        <mxCell id="iQeLM1-3DoPmlmmyjXH5-13" value="" style="shape=umlLifeline;perimeter=lifelinePerimeter;whiteSpace=wrap;html=1;container=1;dropTarget=0;collapsible=0;recursiveResize=0;outlineConnect=0;portConstraint=eastwest;newEdgeStyle={&quot;curved&quot;:0,&quot;rounded&quot;:0};participant=umlControl;" parent="1" vertex="1">
          <mxGeometry x="416.25" y="190" width="40" height="470" as="geometry" />
        </mxCell>
        <mxCell id="iOsQXkImb65fX7CqrOVJ-2" value="" style="html=1;points=[[0,0,0,0,5],[0,1,0,0,-5],[1,0,0,0,5],[1,1,0,0,-5]];perimeter=orthogonalPerimeter;outlineConnect=0;targetShapes=umlLifeline;portConstraint=eastwest;newEdgeStyle={&quot;curved&quot;:0,&quot;rounded&quot;:0};" vertex="1" parent="iQeLM1-3DoPmlmmyjXH5-13">
          <mxGeometry x="15" y="130" width="10" height="340" as="geometry" />
        </mxCell>
        <mxCell id="iQeLM1-3DoPmlmmyjXH5-15" value="" style="shape=umlLifeline;perimeter=lifelinePerimeter;whiteSpace=wrap;html=1;container=1;dropTarget=0;collapsible=0;recursiveResize=0;outlineConnect=0;portConstraint=eastwest;newEdgeStyle={&quot;curved&quot;:0,&quot;rounded&quot;:0};participant=umlEntity;" parent="1" vertex="1">
          <mxGeometry x="636.25" y="190" width="40" height="470" as="geometry" />
        </mxCell>
        <mxCell id="iOsQXkImb65fX7CqrOVJ-3" value="" style="html=1;points=[[0,0,0,0,5],[0,1,0,0,-5],[1,0,0,0,5],[1,1,0,0,-5]];perimeter=orthogonalPerimeter;outlineConnect=0;targetShapes=umlLifeline;portConstraint=eastwest;newEdgeStyle={&quot;curved&quot;:0,&quot;rounded&quot;:0};" vertex="1" parent="iQeLM1-3DoPmlmmyjXH5-15">
          <mxGeometry x="15" y="130" width="10" height="340" as="geometry" />
        </mxCell>
        <mxCell id="iOsQXkImb65fX7CqrOVJ-4" value="Register Page" style="text;html=1;align=center;verticalAlign=middle;whiteSpace=wrap;rounded=0;" vertex="1" parent="1">
          <mxGeometry x="212.5" y="160" width="85" height="30" as="geometry" />
        </mxCell>
        <mxCell id="iOsQXkImb65fX7CqrOVJ-5" value="Control Register" style="text;html=1;align=center;verticalAlign=middle;whiteSpace=wrap;rounded=0;" vertex="1" parent="1">
          <mxGeometry x="390" y="160" width="92.5" height="30" as="geometry" />
        </mxCell>
        <mxCell id="iOsQXkImb65fX7CqrOVJ-6" value="Sistem" style="text;html=1;align=center;verticalAlign=middle;whiteSpace=wrap;rounded=0;" vertex="1" parent="1">
          <mxGeometry x="610" y="160" width="92.5" height="30" as="geometry" />
        </mxCell>
        <mxCell id="iOsQXkImb65fX7CqrOVJ-9" style="edgeStyle=none;curved=0;rounded=0;orthogonalLoop=1;jettySize=auto;html=1;exitX=1;exitY=0;exitDx=0;exitDy=5;exitPerimeter=0;fontSize=12;startSize=8;endSize=8;" edge="1" parent="1">
          <mxGeometry relative="1" as="geometry">
            <mxPoint x="260" y="350" as="sourcePoint" />
            <mxPoint x="431.25" y="350" as="targetPoint" />
          </mxGeometry>
        </mxCell>
        <mxCell id="iOsQXkImb65fX7CqrOVJ-10" value="2. Mengisi data registrasi" style="edgeLabel;html=1;align=center;verticalAlign=middle;resizable=0;points=[];fontSize=12;" vertex="1" connectable="0" parent="iOsQXkImb65fX7CqrOVJ-9">
          <mxGeometry x="-0.0774" y="1" relative="1" as="geometry">
            <mxPoint y="-9" as="offset" />
          </mxGeometry>
        </mxCell>
        <mxCell id="iOsQXkImb65fX7CqrOVJ-12" style="edgeStyle=none;curved=0;rounded=0;orthogonalLoop=1;jettySize=auto;html=1;exitX=1;exitY=0;exitDx=0;exitDy=5;exitPerimeter=0;fontSize=12;startSize=8;endSize=8;" edge="1" parent="1">
          <mxGeometry relative="1" as="geometry">
            <mxPoint x="440" y="380" as="sourcePoint" />
            <mxPoint x="654.5" y="380" as="targetPoint" />
          </mxGeometry>
        </mxCell>
        <mxCell id="iOsQXkImb65fX7CqrOVJ-13" value="3. Validasi Form" style="edgeLabel;html=1;align=center;verticalAlign=middle;resizable=0;points=[];fontSize=12;" vertex="1" connectable="0" parent="iOsQXkImb65fX7CqrOVJ-12">
          <mxGeometry x="0.007" y="-2" relative="1" as="geometry">
            <mxPoint y="-12" as="offset" />
          </mxGeometry>
        </mxCell>
        <mxCell id="iOsQXkImb65fX7CqrOVJ-16" value="Database" style="html=1;whiteSpace=wrap;" vertex="1" parent="1">
          <mxGeometry x="750" y="180" width="110" height="50" as="geometry" />
        </mxCell>
        <mxCell id="iOsQXkImb65fX7CqrOVJ-17" value="4. Validation (False)" style="html=1;verticalAlign=bottom;endArrow=open;dashed=1;endSize=8;curved=0;rounded=0;fontSize=12;" edge="1" parent="1" source="iQeLM1-3DoPmlmmyjXH5-15" target="iOsQXkImb65fX7CqrOVJ-2">
          <mxGeometry relative="1" as="geometry">
            <mxPoint x="600" y="460" as="sourcePoint" />
            <mxPoint x="520" y="460" as="targetPoint" />
          </mxGeometry>
        </mxCell>
        <mxCell id="iOsQXkImb65fX7CqrOVJ-19" value="" style="html=1;points=[[0,0,0,0,5],[0,1,0,0,-5],[1,0,0,0,5],[1,1,0,0,-5]];perimeter=orthogonalPerimeter;outlineConnect=0;targetShapes=umlLifeline;portConstraint=eastwest;newEdgeStyle={&quot;curved&quot;:0,&quot;rounded&quot;:0};" vertex="1" parent="1">
          <mxGeometry x="800" y="490" width="10" height="80" as="geometry" />
        </mxCell>
        <mxCell id="iOsQXkImb65fX7CqrOVJ-20" value="" style="endArrow=none;dashed=1;html=1;rounded=0;fontSize=12;startSize=8;endSize=8;curved=1;entryX=0.5;entryY=1;entryDx=0;entryDy=0;exitX=0.6;exitY=-0.025;exitDx=0;exitDy=0;exitPerimeter=0;" edge="1" parent="1" source="iOsQXkImb65fX7CqrOVJ-19" target="iOsQXkImb65fX7CqrOVJ-16">
          <mxGeometry width="50" height="50" relative="1" as="geometry">
            <mxPoint x="790" y="280" as="sourcePoint" />
            <mxPoint x="840" y="230" as="targetPoint" />
          </mxGeometry>
        </mxCell>
        <mxCell id="iOsQXkImb65fX7CqrOVJ-21" style="edgeStyle=none;curved=0;rounded=0;orthogonalLoop=1;jettySize=auto;html=1;entryX=0;entryY=0;entryDx=0;entryDy=5;entryPerimeter=0;fontSize=12;startSize=8;endSize=8;" edge="1" parent="1" source="iOsQXkImb65fX7CqrOVJ-3" target="iOsQXkImb65fX7CqrOVJ-19">
          <mxGeometry relative="1" as="geometry" />
        </mxCell>
        <mxCell id="iOsQXkImb65fX7CqrOVJ-22" value="6. Validation (True)" style="edgeLabel;html=1;align=center;verticalAlign=middle;resizable=0;points=[];fontSize=12;" vertex="1" connectable="0" parent="iOsQXkImb65fX7CqrOVJ-21">
          <mxGeometry x="-0.0955" y="-1" relative="1" as="geometry">
            <mxPoint x="6" y="-16" as="offset" />
          </mxGeometry>
        </mxCell>
        <mxCell id="iOsQXkImb65fX7CqrOVJ-23" value="7. Registrasi Berhasil" style="html=1;verticalAlign=bottom;endArrow=open;dashed=1;endSize=8;curved=0;rounded=0;fontSize=12;" edge="1" parent="1" source="iOsQXkImb65fX7CqrOVJ-19">
          <mxGeometry relative="1" as="geometry">
            <mxPoint x="800" y="550" as="sourcePoint" />
            <mxPoint x="660" y="550" as="targetPoint" />
          </mxGeometry>
        </mxCell>
        <mxCell id="iOsQXkImb65fX7CqrOVJ-24" value="5. Error" style="html=1;verticalAlign=bottom;endArrow=open;dashed=1;endSize=8;curved=0;rounded=0;fontSize=12;" edge="1" parent="1">
          <mxGeometry relative="1" as="geometry">
            <mxPoint x="430" y="460" as="sourcePoint" />
            <mxPoint x="260" y="460" as="targetPoint" />
          </mxGeometry>
        </mxCell>
        <mxCell id="iOsQXkImb65fX7CqrOVJ-27" value="8. Registrasi Berhasil" style="html=1;verticalAlign=bottom;endArrow=open;dashed=1;endSize=8;curved=0;rounded=0;fontSize=12;" edge="1" parent="1">
          <mxGeometry relative="1" as="geometry">
            <mxPoint x="650" y="590" as="sourcePoint" />
            <mxPoint x="440" y="590" as="targetPoint" />
            <mxPoint as="offset" />
          </mxGeometry>
        </mxCell>
        <mxCell id="iOsQXkImb65fX7CqrOVJ-28" value="9. Registrasi Berhasil" style="html=1;verticalAlign=bottom;endArrow=open;dashed=1;endSize=8;curved=0;rounded=0;fontSize=12;" edge="1" parent="1" source="iOsQXkImb65fX7CqrOVJ-2">
          <mxGeometry relative="1" as="geometry">
            <mxPoint x="425" y="620" as="sourcePoint" />
            <mxPoint x="260" y="620" as="targetPoint" />
            <mxPoint as="offset" />
            <Array as="points">
              <mxPoint x="260" y="620" />
            </Array>
          </mxGeometry>
        </mxCell>
        <mxCell id="iOsQXkImb65fX7CqrOVJ-29" value="5. Error" style="html=1;verticalAlign=bottom;endArrow=open;dashed=1;endSize=8;curved=0;rounded=0;fontSize=12;" edge="1" parent="1" source="iOsQXkImb65fX7CqrOVJ-1" target="iQeLM1-3DoPmlmmyjXH5-4">
          <mxGeometry relative="1" as="geometry">
            <mxPoint x="240" y="480" as="sourcePoint" />
            <mxPoint x="70" y="480" as="targetPoint" />
          </mxGeometry>
        </mxCell>
        <mxCell id="iOsQXkImb65fX7CqrOVJ-30" value="10. Registrasi Berhasil" style="html=1;verticalAlign=bottom;endArrow=open;dashed=1;endSize=8;curved=0;rounded=0;fontSize=12;" edge="1" parent="1">
          <mxGeometry x="-0.0058" relative="1" as="geometry">
            <mxPoint x="250" y="640.0000000000002" as="sourcePoint" />
            <mxPoint x="60.000000000000114" y="640.0000000000002" as="targetPoint" />
            <mxPoint as="offset" />
            <Array as="points" />
          </mxGeometry>
        </mxCell>
      </root>
    </mxGraphModel>
  </diagram>
</mxfile>
